<svg xmlns="http://www.w3.org/2000/svg" xmlns:xlink="http://www.w3.org/1999/xlink" width="1280" zoomAndPan="magnify" viewBox="0 0 960 479.999983" height="640" preserveAspectRatio="xMidYMid meet" version="1.0"><defs><clipPath id="86ed73272c"><path d="M 17.078125 174 L 110 174 L 110 336 L 17.078125 336 Z M 17.078125 174 " clip-rule="nonzero"/></clipPath><clipPath id="1d819178e4"><path d="M 68 201 L 176.078125 201 L 176.078125 310 L 68 310 Z M 68 201 " clip-rule="nonzero"/></clipPath><clipPath id="bfe2cc7519"><path d="M 126 144 L 136 144 L 136 153 L 126 153 Z M 126 144 " clip-rule="nonzero"/></clipPath></defs><g clip-path="url(#86ed73272c)"><path fill="#24265d" d="M 109.78125 187.171875 L 97.6875 174.976562 L 17.101562 255.242188 L 97.191406 336.003906 L 109.398438 323.84375 L 41.40625 255.273438 L 109.78125 187.171875 " fill-opacity="1" fill-rule="nonzero"/></g><g clip-path="url(#1d819178e4)"><path fill="#00adef" d="M 122.191406 201.359375 L 68.03125 255.308594 L 121.894531 309.621094 L 176.054688 255.671875 L 122.191406 201.359375 " fill-opacity="1" fill-rule="nonzero"/></g><path fill="#00adef" d="M 124.40625 172.832031 L 112.296875 160.597656 L 100.085938 172.734375 L 112.199219 184.96875 L 124.40625 172.832031 " fill-opacity="1" fill-rule="nonzero"/><path fill="#24265d" d="M 118.410156 187.628906 L 126.59375 195.898438 L 134.84375 187.695312 L 126.660156 179.425781 L 118.410156 187.628906 " fill-opacity="1" fill-rule="nonzero"/><path fill="#00adef" d="M 134.878906 164.546875 L 126.628906 172.75 L 134.8125 181.019531 L 143.0625 172.816406 L 134.878906 164.546875 " fill-opacity="1" fill-rule="nonzero"/><path fill="#24265d" d="M 127.582031 158.039062 L 121.714844 152.113281 L 115.800781 157.992188 L 121.667969 163.921875 L 127.582031 158.039062 " fill-opacity="1" fill-rule="nonzero"/><g clip-path="url(#bfe2cc7519)"><path fill="#00adef" d="M 135.453125 148.4375 L 131.058594 143.996094 L 126.628906 148.402344 L 131.023438 152.84375 L 135.453125 148.4375 " fill-opacity="1" fill-rule="nonzero"/></g><path fill="#00adef" d="M 155.5625 172.800781 L 151.167969 168.359375 L 146.734375 172.765625 L 151.132812 177.207031 L 155.5625 172.800781 " fill-opacity="1" fill-rule="nonzero"/><path fill="#24265d" d="M 145.257812 158.035156 L 140.863281 153.59375 L 136.429688 158 L 140.828125 162.441406 L 145.257812 158.035156 " fill-opacity="1" fill-rule="nonzero"/><path fill="#24265d" d="M 159.960938 188.511719 L 164.390625 184.109375 L 159.996094 179.664062 L 155.5625 184.070312 L 159.960938 188.511719 " fill-opacity="1" fill-rule="nonzero"/><path fill="#00adef" d="M 145.234375 189.996094 L 151.148438 184.113281 L 145.28125 178.183594 L 139.367188 184.066406 L 145.234375 189.996094 " fill-opacity="1" fill-rule="nonzero"/><path stroke-linecap="butt" transform="matrix(0.646707, 0, 0, 0.646707, 176.438895, 201.374502)" fill="none" stroke-linejoin="miter" d="M 121.756604 32.007897 C 122.511631 32.007897 123.097533 32.231386 123.514308 32.672322 C 123.961284 33.089097 124.178732 33.662918 124.178732 34.387744 L 124.178732 55.365429 C 124.178732 56.096296 123.961284 56.682197 123.514308 57.123134 C 123.097533 57.539909 122.511631 57.751316 121.756604 57.751316 L 99.063496 57.751316 C 98.411152 57.751316 98.08498 58.077488 98.08498 58.723792 L 98.08498 141.619776 C 98.08498 142.344602 97.867532 142.930503 97.420556 143.37748 C 97.003781 143.794255 96.42996 143.999622 95.705133 143.999622 L 70.426811 143.999622 C 69.671784 143.999622 69.073802 143.794255 68.632866 143.37748 C 68.216091 142.930503 68.010723 142.344602 68.010723 141.619776 L 68.010723 58.723792 C 68.010723 58.077488 67.696632 57.751316 67.068449 57.751316 L 44.804197 57.751316 C 44.049169 57.751316 43.463268 57.539909 43.046493 57.123134 C 42.629717 56.682197 42.42435 56.096296 42.42435 55.365429 L 42.42435 34.387744 C 42.42435 33.662918 42.629717 33.089097 43.046493 32.672322 C 43.463268 32.231386 44.049169 32.007897 44.804197 32.007897 Z M 134.749118 143.999622 C 133.99409 143.999622 133.390068 143.794255 132.949132 143.37748 C 132.532357 142.930503 132.326989 142.344602 132.326989 141.619776 L 132.326989 34.387744 C 132.326989 33.662918 132.532357 33.089097 132.949132 32.672322 C 133.390068 32.231386 133.99409 32.007897 134.749118 32.007897 L 160.021399 32.007897 C 160.746226 32.007897 161.320047 32.231386 161.736822 32.672322 C 162.183798 33.089097 162.401246 33.662918 162.401246 34.387744 L 162.401246 141.619776 C 162.401246 142.344602 162.183798 142.930503 161.736822 143.37748 C 161.320047 143.794255 160.746226 143.999622 160.021399 143.999622 Z M 243.672411 145.600281 C 235.675159 145.600281 228.632262 143.999622 222.53768 140.798306 C 216.473299 137.590949 211.786088 133.090985 208.476047 127.280293 C 205.172046 121.475641 203.517026 114.728715 203.517026 107.045555 L 203.517026 68.961965 C 203.517026 61.278805 205.172046 54.56208 208.476047 48.80575 C 211.786088 43.04942 216.473299 38.597778 222.53768 35.444783 C 228.632262 32.291788 235.675159 30.721331 243.672411 30.721331 C 251.693823 30.721331 258.760881 32.291788 264.885664 35.444783 C 271.028568 38.597778 275.758061 43.04942 279.062062 48.80575 C 282.372102 54.56208 284.021082 61.278805 284.021082 68.961965 L 284.021082 107.045555 C 284.021082 114.728715 282.341901 121.475641 278.983539 127.280293 C 275.625176 133.090985 270.895684 137.590949 264.807142 140.798306 C 258.73672 143.999622 251.693823 145.600281 243.672411 145.600281 Z M 243.672411 119.856862 C 246.771044 119.856862 249.259614 118.793783 251.132083 116.655545 C 253.010591 114.523347 253.946825 111.684444 253.946825 108.138834 L 253.946825 68.140495 C 253.946825 64.625087 253.010591 61.798264 251.132083 59.666066 C 249.259614 57.527828 246.771044 56.458709 243.672411 56.458709 C 240.700622 56.458709 238.278494 57.527828 236.406026 59.666066 C 234.533557 61.798264 233.591283 64.625087 233.591283 68.140495 L 233.591283 108.138834 C 233.591283 111.684444 234.533557 114.523347 236.406026 116.655545 C 238.278494 118.793783 240.700622 119.856862 243.672411 119.856862 Z M 331.998552 145.286189 C 324.206668 145.286189 317.363099 143.739893 311.449723 140.64126 C 305.536347 137.542627 300.95182 133.169507 297.696141 127.515861 C 294.446503 121.862215 292.815643 115.302536 292.815643 107.830783 L 292.815643 34.387744 C 292.815643 33.662918 293.027051 33.089097 293.443826 32.672322 C 293.884762 32.231386 294.470664 32.007897 295.20153 32.007897 L 320.473812 32.007897 C 321.22884 32.007897 321.814741 32.231386 322.231516 32.672322 C 322.672452 33.089097 322.89594 33.662918 322.89594 34.387744 L 322.89594 109.274396 C 322.89594 112.373029 323.71741 114.8616 325.35431 116.734068 C 327.021411 118.582375 329.238172 119.506529 331.998552 119.506529 C 334.68041 119.506529 336.86697 118.582375 338.558232 116.734068 C 340.279695 114.8616 341.137406 112.373029 341.137406 109.274396 L 341.137406 34.387744 C 341.137406 33.662918 341.342773 33.089097 341.759548 32.672322 C 342.206525 32.231386 342.792426 32.007897 343.517253 32.007897 L 368.795575 32.007897 C 369.550602 32.007897 370.136504 32.231386 370.553279 32.672322 C 370.994215 33.089097 371.211663 33.662918 371.211663 34.387744 L 371.211663 107.830783 C 371.211663 115.302536 369.586844 121.862215 366.331165 127.515861 C 363.075486 133.169507 358.478878 137.542627 352.541342 140.64126 C 346.634006 143.739893 339.784396 145.286189 331.998552 145.286189 Z M 458.076071 32.007897 C 458.831099 32.007897 459.417 32.231386 459.833775 32.672322 C 460.280752 33.089097 460.4982 33.662918 460.4982 34.387744 L 460.4982 55.365429 C 460.4982 56.096296 460.280752 56.682197 459.833775 57.123134 C 459.417 57.539909 458.831099 57.751316 458.076071 57.751316 L 435.382964 57.751316 C 434.73062 57.751316 434.404448 58.077488 434.404448 58.723792 L 434.404448 141.619776 C 434.404448 142.344602 434.187 142.930503 433.740024 143.37748 C 433.323248 143.794255 432.755468 143.999622 432.024601 143.999622 L 406.752319 143.999622 C 405.997292 143.999622 405.39327 143.794255 404.952334 143.37748 C 404.535558 142.930503 404.330191 142.344602 404.330191 141.619776 L 404.330191 58.723792 C 404.330191 58.077488 404.016099 57.751316 403.387916 57.751316 L 381.123664 57.751316 C 380.368637 57.751316 379.782735 57.539909 379.36596 57.123134 C 378.949185 56.682197 378.743818 56.096296 378.743818 55.365429 L 378.743818 34.387744 C 378.743818 33.662918 378.949185 33.089097 379.36596 32.672322 C 379.782735 32.231386 380.368637 32.007897 381.123664 32.007897 Z M 506.573 145.286189 C 498.684473 145.286189 491.76842 143.909019 485.830884 141.148638 C 479.923548 138.364097 475.339021 134.492316 472.083342 129.545375 C 468.827663 124.574274 467.196804 118.830024 467.196804 112.318667 L 467.196804 108.646213 C 467.196804 107.891185 467.408212 107.305284 467.824987 106.888509 C 468.265923 106.447573 468.863905 106.224085 469.618932 106.224085 L 494.426117 106.224085 C 495.156984 106.224085 495.730805 106.447573 496.14758 106.888509 C 496.588516 107.305284 496.812004 107.891185 496.812004 108.646213 L 496.812004 110.875054 C 496.812004 113.21866 497.79656 115.248174 499.777752 116.969637 C 501.758945 118.660898 504.398521 119.506529 507.708562 119.506529 C 510.366259 119.506529 512.32933 118.842105 513.603817 117.513256 C 514.884343 116.190448 515.518567 114.662272 515.518567 112.94685 C 515.518567 110.941497 514.636694 109.274396 512.86087 107.945547 C 511.121286 106.592538 507.799165 104.792552 502.900546 102.557671 L 499.034805 100.642921 C 493.073108 97.749655 487.902679 94.874511 483.52956 92.005406 C 479.1504 89.118181 475.363182 85.300761 472.161865 80.565229 C 468.954508 75.823656 467.35385 70.145849 467.35385 63.531807 C 467.35385 57.02045 468.984709 51.294321 472.240388 46.34134 C 475.496067 41.370239 479.97187 37.528659 485.673838 34.82264 C 491.406007 32.08642 497.941525 30.721331 505.286433 30.721331 C 512.86087 30.721331 519.631957 32.164943 525.599694 35.052168 C 531.585553 37.921273 536.260683 41.968221 539.619046 47.205092 C 542.983448 52.435923 544.66263 58.415741 544.66263 65.132466 L 544.66263 67.669358 C 544.66263 68.424386 544.439141 69.028408 543.998205 69.469344 C 543.58143 69.886119 542.995529 70.091487 542.240501 70.091487 L 517.433316 70.091487 C 516.70245 70.091487 516.116548 69.886119 515.675612 69.469344 C 515.258837 69.028408 515.05347 68.424386 515.05347 67.669358 L 515.05347 65.446557 C 515.05347 63.102952 514.111195 61.019076 512.238727 59.194929 C 510.39042 57.370783 507.913929 56.458709 504.815296 56.458709 C 502.471691 56.458709 500.569021 57.086892 499.113328 58.337218 C 497.681796 59.557342 496.96301 61.242564 496.96301 63.374762 C 496.96301 65.718367 498.165014 67.826404 500.556941 69.704912 C 502.954908 71.55322 507.678361 74.132394 514.739378 77.436394 C 515.808497 78.088738 517.409156 78.94645 519.541353 80.015569 C 525.195 83.090041 529.725165 85.838341 533.137889 88.260469 C 536.550614 90.652397 539.425759 93.805392 541.769364 97.713414 C 544.11297 101.591236 545.284772 106.356969 545.284772 112.010616 C 545.284772 122.242749 541.733123 130.354765 534.623783 136.346663 C 527.538605 142.308361 518.188344 145.286189 506.573 145.286189 Z M 592.791105 145.600281 C 584.799894 145.600281 577.750957 143.999622 571.656374 140.798306 C 565.591993 137.590949 560.904782 133.090985 557.594741 127.280293 C 554.290741 121.475641 552.63572 114.728715 552.63572 107.045555 L 552.63572 68.961965 C 552.63572 61.278805 554.290741 54.56208 557.594741 48.80575 C 560.904782 43.04942 565.591993 38.597778 571.656374 35.444783 C 577.750957 32.291788 584.799894 30.721331 592.791105 30.721331 C 600.812518 30.721331 607.885616 32.291788 614.004359 35.444783 C 620.147263 38.597778 624.876756 43.04942 628.180756 48.80575 C 631.490797 54.56208 633.145817 61.278805 633.145817 68.961965 L 633.145817 107.045555 C 633.145817 114.728715 631.466636 121.475641 628.102233 127.280293 C 624.743871 133.090985 620.020418 137.590949 613.925836 140.798306 C 607.855415 143.999622 600.812518 145.600281 592.791105 145.600281 Z M 592.791105 119.856862 C 595.889738 119.856862 598.378309 118.793783 600.250777 116.655545 C 602.129286 114.523347 603.06552 111.684444 603.06552 108.138834 L 603.06552 68.140495 C 603.06552 64.625087 602.129286 61.798264 600.250777 59.666066 C 598.378309 57.527828 595.889738 56.458709 592.791105 56.458709 C 589.825357 56.458709 587.403229 57.527828 585.52472 59.666066 C 583.652252 61.798264 582.716018 64.625087 582.716018 68.140495 L 582.716018 108.138834 C 582.716018 111.684444 583.652252 114.523347 585.52472 116.655545 C 587.403229 118.793783 589.825357 119.856862 592.791105 119.856862 Z M 681.117247 145.286189 C 673.331403 145.286189 666.481793 143.739893 660.568417 140.64126 C 654.655042 137.542627 650.076555 133.169507 646.820876 127.515861 C 643.565197 121.862215 641.934338 115.302536 641.934338 107.830783 L 641.934338 34.387744 C 641.934338 33.662918 642.145745 33.089097 642.562521 32.672322 C 643.003457 32.231386 643.589358 32.007897 644.320225 32.007897 L 669.592507 32.007897 C 670.347534 32.007897 670.933436 32.231386 671.350211 32.672322 C 671.791147 33.089097 672.014635 33.662918 672.014635 34.387744 L 672.014635 109.274396 C 672.014635 112.373029 672.836105 114.8616 674.473005 116.734068 C 676.140105 118.582375 678.356866 119.506529 681.117247 119.506529 C 683.799105 119.506529 685.985665 118.582375 687.676926 116.734068 C 689.398389 114.8616 690.2561 112.373029 690.2561 109.274396 L 690.2561 34.387744 C 690.2561 33.662918 690.467508 33.089097 690.884283 32.672322 C 691.325219 32.231386 691.911121 32.007897 692.641987 32.007897 L 717.914269 32.007897 C 718.669297 32.007897 719.255198 32.231386 719.671973 32.672322 C 720.112909 33.089097 720.336398 33.662918 720.336398 34.387744 L 720.336398 107.830783 C 720.336398 115.302536 718.705538 121.862215 715.449859 127.515861 C 712.194181 133.169507 707.597573 137.542627 701.660036 140.64126 C 695.752701 143.739893 688.903091 145.286189 681.117247 145.286189 Z M 781.614433 143.999622 C 780.231222 143.999622 779.319149 143.359359 778.878213 142.084873 L 765.281677 101.772442 C 765.178993 101.228822 764.81658 100.950972 764.188397 100.950972 L 761.301172 100.950972 C 760.648828 100.950972 760.322656 101.277144 760.322656 101.929488 L 760.322656 141.619776 C 760.322656 142.344602 760.099168 142.930503 759.658232 143.37748 C 759.241457 143.794255 758.667636 143.999622 757.942809 143.999622 L 732.664487 143.999622 C 731.90946 143.999622 731.311478 143.794255 730.870542 143.37748 C 730.453767 142.930503 730.242359 142.344602 730.242359 141.619776 L 730.242359 34.387744 C 730.242359 33.662918 730.453767 33.089097 730.870542 32.672322 C 731.311478 32.231386 731.90946 32.007897 732.664487 32.007897 L 774.891668 32.007897 C 781.717116 32.007897 787.745256 33.505872 792.982127 36.501821 C 798.212958 39.46757 802.265946 43.647402 805.12901 49.041319 C 808.016236 54.429195 809.465889 60.638542 809.465889 67.669358 C 809.465889 74.180716 808.094759 79.924965 805.364579 84.896067 C 802.65252 89.849047 798.841141 93.702708 793.918362 96.463089 C 793.501586 96.801341 793.344541 97.230197 793.447224 97.749655 L 809.930986 141.263403 C 810.03971 141.601655 810.088031 141.982189 810.088031 142.398964 C 810.088031 143.468083 809.399446 143.999622 808.016236 143.999622 Z M 761.301172 57.751316 C 760.648828 57.751316 760.322656 58.077488 760.322656 58.723792 L 760.322656 77.122303 C 760.322656 77.750486 760.648828 78.064577 761.301172 78.064577 L 769.775601 78.064577 C 772.638665 78.064577 774.982271 77.164585 776.806417 75.364599 C 778.630564 73.546493 779.542637 71.082083 779.542637 67.98345 C 779.542637 64.806294 778.654725 62.305643 776.88494 60.481496 C 775.139317 58.66339 772.77155 57.751316 769.775601 57.751316 Z M 857.123227 145.286189 C 849.234699 145.286189 842.294486 143.739893 836.302588 140.64126 C 830.34089 137.542627 825.702001 133.139306 822.398 127.437338 C 819.08796 121.73537 817.438979 115.091128 817.438979 107.516692 L 817.438979 67.98345 C 817.438979 60.535858 819.08796 53.988259 822.398 48.334613 C 825.702001 42.687007 830.34089 38.338048 836.302588 35.287737 C 842.294486 32.243466 849.234699 30.721331 857.123227 30.721331 C 865.011755 30.721331 871.915727 32.213265 877.829102 35.209214 C 883.766639 38.181003 888.387407 42.384996 891.691408 47.827234 C 895.001449 53.269473 896.656469 59.623785 896.656469 66.89017 C 896.656469 67.621036 896.432981 68.231099 895.992045 68.726397 C 895.57527 69.197534 894.989368 69.427062 894.234341 69.427062 L 868.962059 70.562624 C 867.373481 70.562624 866.576172 69.819677 866.576172 68.333782 L 866.576172 66.576078 C 866.576172 63.477445 865.718461 61.019076 863.996998 59.194929 C 862.305736 57.370783 860.016493 56.458709 857.123227 56.458709 C 854.260163 56.458709 851.940718 57.400984 850.170933 59.273452 C 848.401149 61.14592 847.513236 63.586169 847.513236 66.576078 L 847.513236 109.431442 C 847.513236 112.427391 848.401149 114.8616 850.170933 116.734068 C 851.940718 118.582375 854.260163 119.506529 857.123227 119.506529 C 860.016493 119.506529 862.305736 118.606536 863.996998 116.812591 C 865.718461 114.988444 866.576172 112.530075 866.576172 109.431442 L 866.576172 107.516692 C 866.576172 106.030798 867.373481 105.28785 868.962059 105.28785 L 894.234341 106.38113 C 894.989368 106.38113 895.57527 106.604618 895.992045 107.045555 C 896.432981 107.46233 896.656469 108.048231 896.656469 108.803259 C 896.656469 116.045483 895.001449 122.436036 891.691408 127.986998 C 888.387407 133.531921 883.736438 137.802356 877.750579 140.798306 C 871.782842 143.794255 864.909071 145.286189 857.123227 145.286189 Z M 908.024164 143.999622 C 907.269136 143.999622 906.671154 143.794255 906.230218 143.37748 C 905.813443 142.930503 905.608076 142.344602 905.608076 141.619776 L 905.608076 34.387744 C 905.608076 33.662918 905.813443 33.089097 906.230218 32.672322 C 906.671154 32.231386 907.269136 32.007897 908.024164 32.007897 L 933.302486 32.007897 C 934.027312 32.007897 934.601133 32.231386 935.017908 32.672322 C 935.464885 33.089097 935.682333 33.662918 935.682333 34.387744 L 935.682333 141.619776 C 935.682333 142.344602 935.464885 142.930503 935.017908 143.37748 C 934.601133 143.794255 934.027312 143.999622 933.302486 143.999622 Z M 1000.656983 34.387744 C 1000.656983 33.662918 1000.86235 33.089097 1001.279125 32.672322 C 1001.726102 32.231386 1002.312003 32.007897 1003.036829 32.007897 L 1028.158106 32.007897 C 1028.913133 32.007897 1029.499035 32.231386 1029.91581 32.672322 C 1030.356746 33.089097 1030.580234 33.662918 1030.580234 34.387744 L 1030.580234 141.619776 C 1030.580234 142.344602 1030.356746 142.930503 1029.91581 143.37748 C 1029.499035 143.794255 1028.913133 143.999622 1028.158106 143.999622 L 1001.786504 143.999622 C 1000.379132 143.999622 999.473099 143.413721 999.056324 142.241918 L 976.828313 90.096696 C 976.72563 89.64972 976.502142 89.432272 976.163889 89.432272 C 975.849798 89.432272 975.692752 89.704082 975.692752 90.247702 L 976.006843 141.619776 C 976.006843 142.344602 975.783355 142.930503 975.342419 143.37748 C 974.925644 143.794255 974.351823 143.999622 973.626997 143.999622 L 948.50572 143.999622 C 947.750693 143.999622 947.152711 143.794255 946.711775 143.37748 C 946.295 142.930503 946.083592 142.344602 946.083592 141.619776 L 946.083592 34.387744 C 946.083592 33.662918 946.295 33.089097 946.711775 32.672322 C 947.152711 32.231386 947.750693 32.007897 948.50572 32.007897 L 974.720277 32.007897 C 976.121608 32.007897 977.033681 32.593799 977.450456 33.765602 L 999.678467 85.916864 C 999.781151 86.3578 999.992558 86.551087 1000.30665 86.502765 C 1000.644902 86.424242 1000.814028 86.122231 1000.814028 85.602772 Z M 1079.361053 145.286189 C 1071.472526 145.286189 1064.532313 143.739893 1058.546454 140.64126 C 1052.578717 137.542627 1047.945868 133.169507 1044.635827 127.515861 C 1041.331826 121.862215 1039.676806 115.302536 1039.676806 107.830783 L 1039.676806 67.98345 C 1039.676806 60.535858 1041.331826 54.01242 1044.635827 48.413136 C 1047.945868 42.813852 1052.578717 38.464893 1058.546454 35.36626 C 1064.532313 32.267627 1071.472526 30.721331 1079.361053 30.721331 C 1087.152938 30.721331 1094.026708 32.243466 1099.988406 35.287737 C 1105.980304 38.338048 1110.625234 42.529961 1113.935275 47.869516 C 1117.239275 53.17887 1118.894295 59.194929 1118.894295 65.911654 L 1118.894295 68.647874 C 1118.894295 69.378741 1118.670807 69.964642 1118.229871 70.405578 C 1117.813096 70.822353 1117.227195 71.033761 1116.472167 71.033761 L 1091.199885 71.033761 C 1090.469019 71.033761 1089.883117 70.822353 1089.442181 70.405578 C 1089.025406 69.964642 1088.813998 69.378741 1088.813998 68.647874 L 1088.813998 66.225746 C 1088.813998 63.465365 1087.956287 61.14592 1086.240864 59.273452 C 1084.543562 57.400984 1082.254319 56.458709 1079.361053 56.458709 C 1076.497989 56.458709 1074.178544 57.479507 1072.40876 59.509021 C 1070.638975 61.538535 1069.757103 64.208312 1069.757103 67.518353 L 1069.757103 108.338162 C 1069.757103 111.642162 1070.741659 114.3361 1072.722851 116.419976 C 1074.704044 118.479692 1077.138252 119.506529 1080.025478 119.506529 C 1082.683175 119.506529 1084.857654 118.660898 1086.548916 116.969637 C 1088.270378 115.248174 1089.12809 112.904568 1089.12809 109.93882 L 1089.12809 105.130805 C 1089.12809 104.484501 1088.801918 104.158329 1088.155614 104.158329 L 1080.653661 104.158329 C 1079.898633 104.158329 1079.312732 103.946922 1078.895956 103.530146 C 1078.479181 103.08921 1078.267774 102.503309 1078.267774 101.772442 L 1078.267774 82.866553 C 1078.267774 82.135686 1078.479181 81.567905 1078.895956 81.15113 C 1079.312732 80.704154 1079.898633 80.486706 1080.653661 80.486706 L 1116.472167 80.486706 C 1117.227195 80.486706 1117.813096 80.704154 1118.229871 81.15113 C 1118.670807 81.567905 1118.894295 82.135686 1118.894295 82.866553 L 1118.894295 108.646213 C 1118.894295 115.888437 1117.239275 122.27899 1113.935275 127.829953 C 1110.625234 133.374875 1105.980304 137.669472 1099.988406 140.719783 C 1094.026708 143.764054 1087.152938 145.286189 1079.361053 145.286189 Z M 1079.361053 145.286189 " stroke="#24265d" stroke-width="3.8" stroke-opacity="1" stroke-miterlimit="4"/></svg>