<svg xmlns="http://www.w3.org/2000/svg" xmlns:xlink="http://www.w3.org/1999/xlink" width="1280" zoomAndPan="magnify" viewBox="0 0 960 149.999998" height="200" preserveAspectRatio="xMidYMid meet" version="1.0"><defs><clipPath id="90065cad7e"><path d="M 207.1875 33 L 266 33 L 266 134.859375 L 207.1875 134.859375 Z M 207.1875 33 " clip-rule="nonzero"/></clipPath><clipPath id="31437c94dd"><path d="M 239 50 L 307.6875 50 L 307.6875 119 L 239 119 Z M 239 50 " clip-rule="nonzero"/></clipPath><clipPath id="7b32f8e3e3"><path d="M 276 14.109375 L 283 14.109375 L 283 20 L 276 20 Z M 276 14.109375 " clip-rule="nonzero"/></clipPath></defs><g clip-path="url(#90065cad7e)"><path fill="#24265d" d="M 265.78125 41.261719 L 258.136719 33.59375 L 207.210938 84.070312 L 257.824219 134.863281 L 265.542969 127.214844 L 222.570312 84.09375 L 265.78125 41.261719 " fill-opacity="1" fill-rule="nonzero"/></g><g clip-path="url(#31437c94dd)"><path fill="#00adef" d="M 273.625 50.183594 L 239.394531 84.113281 L 273.4375 118.269531 L 307.667969 84.34375 L 273.625 50.183594 " fill-opacity="1" fill-rule="nonzero"/></g><path fill="#00adef" d="M 275.027344 32.242188 L 267.371094 24.550781 L 259.65625 32.183594 L 267.308594 39.878906 L 275.027344 32.242188 " fill-opacity="1" fill-rule="nonzero"/><path fill="#24265d" d="M 271.234375 41.550781 L 276.410156 46.75 L 281.621094 41.589844 L 276.449219 36.390625 L 271.234375 41.550781 " fill-opacity="1" fill-rule="nonzero"/><path fill="#00adef" d="M 281.644531 27.03125 L 276.429688 32.191406 L 281.601562 37.394531 L 286.816406 32.234375 L 281.644531 27.03125 " fill-opacity="1" fill-rule="nonzero"/><path fill="#24265d" d="M 277.03125 22.941406 L 273.324219 19.214844 L 269.585938 22.910156 L 273.292969 26.640625 L 277.03125 22.941406 " fill-opacity="1" fill-rule="nonzero"/><g clip-path="url(#7b32f8e3e3)"><path fill="#00adef" d="M 282.007812 16.902344 L 279.230469 14.109375 L 276.429688 16.878906 L 279.207031 19.671875 L 282.007812 16.902344 " fill-opacity="1" fill-rule="nonzero"/></g><path fill="#00adef" d="M 294.714844 32.226562 L 291.9375 29.429688 L 289.136719 32.203125 L 291.917969 34.996094 L 294.714844 32.226562 " fill-opacity="1" fill-rule="nonzero"/><path fill="#24265d" d="M 288.203125 22.9375 L 285.425781 20.144531 L 282.625 22.914062 L 285.402344 25.707031 L 288.203125 22.9375 " fill-opacity="1" fill-rule="nonzero"/><path fill="#24265d" d="M 297.496094 42.105469 L 300.296875 39.335938 L 297.515625 36.542969 L 294.714844 39.3125 L 297.496094 42.105469 " fill-opacity="1" fill-rule="nonzero"/><path fill="#00adef" d="M 288.1875 43.039062 L 291.925781 39.339844 L 288.21875 35.609375 L 284.480469 39.308594 L 288.1875 43.039062 " fill-opacity="1" fill-rule="nonzero"/><path stroke-linecap="butt" transform="matrix(0.417813, 0, 0, 0.417813, 307.526241, 41.574974)" fill="none" stroke-linejoin="miter" d="M 121.758346 32.010136 C 122.515638 32.010136 123.095293 32.225169 123.516011 32.673935 C 123.955427 33.085303 124.17981 33.664959 124.17981 34.394203 L 124.17981 55.364644 C 124.17981 56.093888 123.955427 56.682893 123.516011 57.122309 C 123.095293 57.543027 122.515638 57.748711 121.758346 57.748711 L 99.058288 57.748711 C 98.413187 57.748711 98.085962 58.075936 98.085962 58.730386 L 98.085962 141.621125 C 98.085962 142.350369 97.861579 142.930024 97.422163 143.37879 C 97.001445 143.790158 96.431139 143.995843 95.701895 143.995843 L 70.430784 143.995843 C 69.673492 143.995843 69.075138 143.790158 68.635722 143.37879 C 68.215004 142.930024 68.00932 142.350369 68.00932 141.621125 L 68.00932 58.730386 C 68.00932 58.075936 67.691445 57.748711 67.074392 57.748711 L 44.804401 57.748711 C 44.047109 57.748711 43.467453 57.543027 43.046736 57.122309 C 42.626018 56.682893 42.420334 56.093888 42.420334 55.364644 L 42.420334 34.394203 C 42.420334 33.664959 42.626018 33.085303 43.046736 32.673935 C 43.467453 32.225169 44.047109 32.010136 44.804401 32.010136 Z M 134.744499 143.995843 C 133.987207 143.995843 133.388853 143.790158 132.949437 143.37879 C 132.528719 142.930024 132.323035 142.350369 132.323035 141.621125 L 132.323035 34.394203 C 132.323035 33.664959 132.528719 33.085303 132.949437 32.673935 C 133.388853 32.225169 133.987207 32.010136 134.744499 32.010136 L 160.01561 32.010136 C 160.744854 32.010136 161.324509 32.225169 161.735878 32.673935 C 162.184643 33.085303 162.399677 33.664959 162.399677 34.394203 L 162.399677 141.621125 C 162.399677 142.350369 162.184643 142.930024 161.735878 143.37879 C 161.324509 143.790158 160.744854 143.995843 160.01561 143.995843 Z M 243.67299 145.603919 C 235.679354 145.603919 228.629995 143.995843 222.543612 140.798388 C 216.475927 137.591584 211.782587 133.08523 208.472941 127.279325 C 205.172645 121.473421 203.517822 114.732588 203.517822 107.047478 L 203.517822 68.958501 C 203.517822 61.28274 205.172645 54.560606 208.472941 48.801447 C 211.782587 43.051639 216.475927 38.592031 222.543612 35.441323 C 228.629995 32.290614 235.679354 30.719935 243.67299 30.719935 C 251.694675 30.719935 258.762732 32.290614 264.886512 35.441323 C 271.028991 38.592031 275.759728 43.051639 279.060025 48.801447 C 282.369671 54.560606 284.024494 61.28274 284.024494 68.958501 L 284.024494 107.047478 C 284.024494 114.732588 282.341623 121.473421 278.985231 127.279325 C 275.628838 133.08523 270.898101 137.591584 264.802369 140.798388 C 258.734685 143.995843 251.694675 145.603919 243.67299 145.603919 Z M 243.67299 119.855995 C 246.767603 119.855995 249.254512 118.790177 251.133718 116.65854 C 253.003574 114.517555 253.947852 111.684722 253.947852 108.141344 L 253.947852 68.145113 C 253.947852 64.620434 253.003574 61.79695 251.133718 59.665314 C 249.254512 57.524328 246.767603 56.45851 243.67299 56.45851 C 240.699918 56.45851 238.278454 57.524328 236.408598 59.665314 C 234.529392 61.79695 233.594464 64.620434 233.594464 68.145113 L 233.594464 108.141344 C 233.594464 111.684722 234.529392 114.517555 236.408598 116.65854 C 238.278454 118.790177 240.699918 119.855995 243.67299 119.855995 Z M 331.995663 145.286044 C 324.20771 145.286044 317.364036 143.743412 311.44594 140.63945 C 305.537193 137.544838 300.956045 133.169373 297.702494 127.513057 C 294.439595 121.866091 292.81282 115.302894 292.81282 107.823468 L 292.81282 34.394203 C 292.81282 33.664959 293.027853 33.085303 293.439221 32.673935 C 293.887987 32.225169 294.467643 32.010136 295.196887 32.010136 L 320.467997 32.010136 C 321.225289 32.010136 321.814294 32.225169 322.225663 32.673935 C 322.674428 33.085303 322.898811 33.664959 322.898811 34.394203 L 322.898811 109.272607 C 322.898811 112.376569 323.712198 114.863478 325.357672 116.733335 C 327.021844 118.584493 329.237624 119.510072 331.995663 119.510072 C 334.678907 119.510072 336.866639 118.584493 338.558859 116.733335 C 340.279127 114.863478 341.139261 112.376569 341.139261 109.272607 L 341.139261 34.394203 C 341.139261 33.664959 341.344945 33.085303 341.765663 32.673935 C 342.205079 32.225169 342.794084 32.010136 343.523328 32.010136 L 368.794439 32.010136 C 369.551731 32.010136 370.131386 32.225169 370.552104 32.673935 C 370.99152 33.085303 371.215903 33.664959 371.215903 34.394203 L 371.215903 107.823468 C 371.215903 115.302894 369.589128 121.866091 366.335578 127.513057 C 363.072678 133.169373 358.48218 137.544838 352.545386 140.63945 C 346.62729 143.743412 339.783615 145.286044 331.995663 145.286044 Z M 458.080088 32.010136 C 458.837379 32.010136 459.417035 32.225169 459.837753 32.673935 C 460.277169 33.085303 460.501552 33.664959 460.501552 34.394203 L 460.501552 55.364644 C 460.501552 56.093888 460.277169 56.682893 459.837753 57.122309 C 459.417035 57.543027 458.837379 57.748711 458.080088 57.748711 L 435.380029 57.748711 C 434.734929 57.748711 434.407704 58.075936 434.407704 58.730386 L 434.407704 141.621125 C 434.407704 142.350369 434.183321 142.930024 433.743905 143.37879 C 433.323187 143.790158 432.752881 143.995843 432.023637 143.995843 L 406.752526 143.995843 C 405.995234 143.995843 405.39688 143.790158 404.957464 143.37879 C 404.536746 142.930024 404.331062 142.350369 404.331062 141.621125 L 404.331062 58.730386 C 404.331062 58.075936 404.013186 57.748711 403.386784 57.748711 L 381.126143 57.748711 C 380.368851 57.748711 379.779846 57.543027 379.368478 57.122309 C 378.94776 56.682893 378.742076 56.093888 378.742076 55.364644 L 378.742076 34.394203 C 378.742076 33.664959 378.94776 33.085303 379.368478 32.673935 C 379.779846 32.225169 380.368851 32.010136 381.126143 32.010136 Z M 506.574816 145.286044 C 498.684022 145.286044 491.765553 143.911699 485.828758 141.144311 C 479.920012 138.358225 475.338863 134.496971 472.085313 129.551201 C 468.831762 124.577383 467.195638 118.827574 467.195638 112.320473 L 467.195638 108.646205 C 467.195638 107.888913 467.410672 107.309258 467.82204 106.88854 C 468.270806 106.449124 468.86916 106.224741 469.617102 106.224741 L 494.430098 106.224741 C 495.159342 106.224741 495.729648 106.449124 496.141017 106.88854 C 496.589782 107.309258 496.804816 107.888913 496.804816 108.646205 L 496.804816 110.871334 C 496.804816 113.218004 497.79584 115.246799 499.777888 116.967067 C 501.759936 118.659287 504.396433 119.510072 507.706079 119.510072 C 510.361276 119.510072 512.333974 118.846272 513.605477 117.518674 C 514.886328 116.191076 515.52208 114.667143 515.52208 112.946875 C 515.52208 110.936779 514.633898 109.272607 512.866883 107.945009 C 511.118568 106.589363 507.799572 104.794301 502.900548 102.550473 L 499.039294 100.643219 C 493.074452 97.754291 487.904299 94.874712 483.528835 92.004482 C 479.15337 89.115554 475.366911 85.301047 472.160107 80.56096 C 468.953303 75.820874 467.354576 70.14586 467.354576 63.535917 C 467.354576 57.019467 468.981351 51.288357 472.234901 46.342586 C 475.497801 41.368768 479.976107 37.526213 485.67917 34.82427 C 491.400931 32.08493 497.945428 30.719935 505.284615 30.719935 C 512.866883 30.719935 519.635764 32.159724 525.600606 35.058002 C 531.584147 37.918883 536.258788 41.967122 539.62453 47.20272 C 542.980923 52.438318 544.663793 58.41251 544.663793 65.134644 L 544.663793 67.6683 C 544.663793 68.425592 544.439411 69.023946 543.999994 69.472711 C 543.579277 69.88408 542.990272 70.089764 542.242329 70.089764 L 517.429333 70.089764 C 516.709439 70.089764 516.120434 69.88408 515.671668 69.472711 C 515.2603 69.023946 515.054616 68.425592 515.054616 67.6683 L 515.054616 65.44317 C 515.054616 63.10585 514.110338 61.02096 512.240481 59.19785 C 510.389324 57.37474 507.911764 56.45851 504.817151 56.45851 C 502.470481 56.45851 500.572577 57.084912 499.114089 58.337716 C 497.683648 59.562472 496.963754 61.235993 496.963754 63.376979 C 496.963754 65.7143 498.160462 67.827237 500.563228 69.706443 C 502.956644 71.548252 507.678032 74.128654 514.73674 77.4383 C 515.802558 78.09275 517.410635 78.943534 519.542271 80.018702 C 525.198587 83.085267 529.72364 85.833956 533.136128 88.25542 C 536.548616 90.658186 539.428195 93.808894 541.765516 97.707545 C 544.112186 101.587497 545.280846 106.355631 545.280846 112.011947 C 545.280846 122.240062 541.728119 130.355239 534.622664 136.348129 C 527.535908 142.303622 518.186625 145.286044 506.574816 145.286044 Z M 592.7939 145.603919 C 584.800263 145.603919 577.750904 143.995843 571.655172 140.798388 C 565.587488 137.591584 560.903497 133.08523 557.593851 127.279325 C 554.293554 121.473421 552.638731 114.732588 552.638731 107.047478 L 552.638731 68.958501 C 552.638731 61.28274 554.293554 54.560606 557.593851 48.801447 C 560.903497 43.051639 565.587488 38.592031 571.655172 35.441323 C 577.750904 32.290614 584.800263 30.719935 592.7939 30.719935 C 600.815585 30.719935 607.883642 32.290614 614.007422 35.441323 C 620.149901 38.592031 624.871289 43.051639 628.180935 48.801447 C 631.490581 54.560606 633.145404 61.28274 633.145404 68.958501 L 633.145404 107.047478 C 633.145404 114.732588 631.462533 121.473421 628.10614 127.279325 C 624.749748 133.08523 620.019011 137.591584 613.923279 140.798388 C 607.855594 143.995843 600.815585 145.603919 592.7939 145.603919 Z M 592.7939 119.855995 C 595.888513 119.855995 598.375422 118.790177 600.254628 116.65854 C 602.124484 114.517555 603.068762 111.684722 603.068762 108.141344 L 603.068762 68.145113 C 603.068762 64.620434 602.124484 61.79695 600.254628 59.665314 C 598.375422 57.524328 595.888513 56.45851 592.7939 56.45851 C 589.820828 56.45851 587.399364 57.524328 585.529508 59.665314 C 583.650302 61.79695 582.715373 64.620434 582.715373 68.145113 L 582.715373 108.141344 C 582.715373 111.684722 583.650302 114.517555 585.529508 116.65854 C 587.399364 118.790177 589.820828 119.855995 592.7939 119.855995 Z M 681.116573 145.286044 C 673.32862 145.286044 666.484945 143.743412 660.566849 140.63945 C 654.658103 137.544838 650.076954 133.169373 646.823404 127.513057 C 643.560504 121.866091 641.933729 115.302894 641.933729 107.823468 L 641.933729 34.394203 C 641.933729 33.664959 642.148763 33.085303 642.560131 32.673935 C 642.999547 32.225169 643.588552 32.010136 644.317796 32.010136 L 669.588907 32.010136 C 670.346199 32.010136 670.935204 32.225169 671.346572 32.673935 C 671.795338 33.085303 672.010371 33.664959 672.010371 34.394203 L 672.010371 109.272607 C 672.010371 112.376569 672.833108 114.863478 674.478582 116.733335 C 676.142754 118.584493 678.358534 119.510072 681.116573 119.510072 C 683.799817 119.510072 685.987549 118.584493 687.679769 116.733335 C 689.400037 114.863478 690.260171 112.376569 690.260171 109.272607 L 690.260171 34.394203 C 690.260171 33.664959 690.465855 33.085303 690.877224 32.673935 C 691.325989 32.225169 691.905645 32.010136 692.634889 32.010136 L 717.915349 32.010136 C 718.672641 32.010136 719.252296 32.225169 719.673014 32.673935 C 720.11243 33.085303 720.336813 33.664959 720.336813 34.394203 L 720.336813 107.823468 C 720.336813 115.302894 718.710038 121.866091 715.456487 127.513057 C 712.193588 133.169373 707.60309 137.544838 701.666296 140.63945 C 695.7482 143.743412 688.904525 145.286044 681.116573 145.286044 Z M 781.612011 143.995843 C 780.228317 143.995843 779.321437 143.360091 778.88202 142.088589 L 765.288164 101.774482 C 765.175972 101.222875 764.81135 100.951746 764.194297 100.951746 L 761.29602 100.951746 C 760.650919 100.951746 760.323694 101.278971 760.323694 101.93342 L 760.323694 141.621125 C 760.323694 142.350369 760.099312 142.930024 759.659895 143.37879 C 759.239178 143.790158 758.668871 143.995843 757.939627 143.995843 L 732.668517 143.995843 C 731.911225 143.995843 731.312871 143.790158 730.873454 143.37879 C 730.452737 142.930024 730.247052 142.350369 730.247052 141.621125 L 730.247052 34.394203 C 730.247052 33.664959 730.452737 33.085303 730.873454 32.673935 C 731.312871 32.225169 731.911225 32.010136 732.668517 32.010136 L 774.889877 32.010136 C 781.714853 32.010136 787.74514 33.506021 792.980738 36.497792 C 798.216337 39.470863 802.264576 43.649993 805.125457 49.03518 C 808.014385 54.429716 809.463524 60.637639 809.463524 67.6683 C 809.463524 74.18475 808.098528 79.925209 805.359189 84.899027 C 802.657246 89.844798 798.842739 93.696702 793.915667 96.46409 C 793.504298 96.800664 793.345361 97.230731 793.448203 97.754291 L 809.930988 141.265852 C 810.03383 141.602426 810.089926 141.985747 810.089926 142.397115 C 810.089926 143.462933 809.398079 143.995843 808.014385 143.995843 Z M 761.29602 57.748711 C 760.650919 57.748711 760.323694 58.075936 760.323694 58.730386 L 760.323694 77.120424 C 760.323694 77.746826 760.650919 78.064702 761.29602 78.064702 L 769.775819 78.064702 C 772.6367 78.064702 774.98337 77.167171 776.80648 75.362759 C 778.62959 73.539649 779.545819 71.080788 779.545819 67.986175 C 779.545819 64.807419 778.657638 62.311161 776.881274 60.488051 C 775.142307 58.664941 772.76759 57.748711 769.775819 57.748711 Z M 857.126166 145.286044 C 849.235372 145.286044 842.288855 143.743412 836.305314 140.63945 C 830.340472 137.544838 825.703227 133.141326 822.393581 127.438263 C 819.093285 121.735201 817.438462 115.09721 817.438462 107.514942 L 817.438462 67.986175 C 817.438462 60.534797 819.093285 53.990299 822.393581 48.333983 C 825.703227 42.687017 830.340472 38.3396 836.305314 35.291734 C 842.288855 32.243868 849.235372 30.719935 857.126166 30.719935 C 865.016961 30.719935 871.916731 32.21582 877.825478 35.207591 C 883.762272 38.180662 888.390167 42.38784 891.690464 47.829122 C 895.00011 53.270405 896.654933 59.627917 896.654933 66.892309 C 896.654933 67.621553 896.43055 68.229257 895.991134 68.724769 C 895.570416 69.192233 894.990761 69.425965 894.233469 69.425965 L 868.962358 70.566577 C 867.37298 70.566577 866.578291 69.818635 866.578291 68.332099 L 866.578291 66.574434 C 866.578291 63.479821 865.718157 61.02096 863.997889 59.19785 C 862.305669 57.37474 860.015095 56.45851 857.126166 56.45851 C 854.255936 56.45851 851.937314 57.402787 850.1703 59.272644 C 848.403286 61.15185 847.515104 63.582663 847.515104 66.574434 L 847.515104 109.431545 C 847.515104 112.423315 848.403286 114.863478 850.1703 116.733335 C 851.937314 118.584493 854.255936 119.510072 857.126166 119.510072 C 860.015095 119.510072 862.305669 118.61254 863.997889 116.808129 C 865.718157 114.985019 866.578291 112.526157 866.578291 109.431545 L 866.578291 107.514942 C 866.578291 106.028406 867.37298 105.289813 868.962358 105.289813 L 894.233469 106.383679 C 894.990761 106.383679 895.570416 106.608062 895.991134 107.047478 C 896.43055 107.468196 896.654933 108.047851 896.654933 108.805143 C 896.654933 116.041488 895.00011 122.436397 891.690464 127.980522 C 888.390167 133.533995 883.734224 137.806618 877.750684 140.798388 C 871.785841 143.790158 864.914119 145.286044 857.126166 145.286044 Z M 908.023661 143.995843 C 907.275718 143.995843 906.677364 143.790158 906.228598 143.37879 C 905.81723 142.930024 905.602196 142.350369 905.602196 141.621125 L 905.602196 34.394203 C 905.602196 33.664959 905.81723 33.085303 906.228598 32.673935 C 906.677364 32.225169 907.275718 32.010136 908.023661 32.010136 L 933.304121 32.010136 C 934.033365 32.010136 934.603671 32.225169 935.015039 32.673935 C 935.463805 33.085303 935.678838 33.664959 935.678838 34.394203 L 935.678838 141.621125 C 935.678838 142.350369 935.463805 142.930024 935.015039 143.37879 C 934.603671 143.790158 934.033365 143.995843 933.304121 143.995843 Z M 1000.656352 34.394203 C 1000.656352 33.664959 1000.862036 33.085303 1001.282754 32.673935 C 1001.72217 32.225169 1002.311175 32.010136 1003.040419 32.010136 L 1028.152592 32.010136 C 1028.909884 32.010136 1029.498889 32.225169 1029.910257 32.673935 C 1030.359023 33.085303 1030.574056 33.664959 1030.574056 34.394203 L 1030.574056 141.621125 C 1030.574056 142.350369 1030.359023 142.930024 1029.910257 143.37879 C 1029.498889 143.790158 1028.909884 143.995843 1028.152592 143.995843 L 1001.787615 143.995843 C 1000.385223 143.995843 999.468993 143.416187 999.057625 142.238177 L 976.825031 90.097229 C 976.722189 89.648463 976.497806 89.43343 976.161232 89.43343 C 975.852706 89.43343 975.693768 89.704559 975.693768 90.246817 L 976.011643 141.621125 C 976.011643 142.350369 975.787261 142.930024 975.338495 143.37879 C 974.927127 143.790158 974.35682 143.995843 973.627576 143.995843 L 948.506054 143.995843 C 947.748762 143.995843 947.150408 143.790158 946.710992 143.37879 C 946.290274 142.930024 946.08459 142.350369 946.08459 141.621125 L 946.08459 34.394203 C 946.08459 33.664959 946.290274 33.085303 946.710992 32.673935 C 947.150408 32.225169 947.748762 32.010136 948.506054 32.010136 L 974.721442 32.010136 C 976.123835 32.010136 977.040064 32.589791 977.451433 33.767801 L 999.674678 85.918099 C 999.786869 86.357516 999.992553 86.55385 1000.301079 86.497755 C 1000.647003 86.422961 1000.81529 86.123783 1000.81529 85.600224 Z M 1079.367962 145.286044 C 1071.477168 145.286044 1064.530651 143.743412 1058.54711 140.63945 C 1052.582268 137.544838 1047.945023 133.169373 1044.635377 127.513057 C 1041.325731 121.866091 1039.680258 115.302894 1039.680258 107.823468 L 1039.680258 67.986175 C 1039.680258 60.534797 1041.325731 54.008998 1044.635377 48.418127 C 1047.945023 42.817907 1052.582268 38.47049 1058.54711 35.366528 C 1064.530651 32.271916 1071.477168 30.719935 1079.367962 30.719935 C 1087.146565 30.719935 1094.027637 32.243868 1099.99248 35.291734 C 1105.97602 38.3396 1110.622614 42.528079 1113.93226 47.866519 C 1117.241906 53.176912 1118.896729 59.19785 1118.896729 65.910635 L 1118.896729 68.649974 C 1118.896729 69.379218 1118.672346 69.958874 1118.23293 70.407639 C 1117.812212 70.819008 1117.232557 71.034041 1116.475265 71.034041 L 1091.204154 71.034041 C 1090.47491 71.034041 1089.885905 70.819008 1089.446489 70.407639 C 1089.025771 69.958874 1088.820087 69.379218 1088.820087 68.649974 L 1088.820087 66.22851 C 1088.820087 63.470472 1087.959953 61.15185 1086.239685 59.272644 C 1084.547465 57.402787 1082.25689 56.45851 1079.367962 56.45851 C 1076.497732 56.45851 1074.17911 57.477582 1072.412096 59.506376 C 1070.635732 61.53517 1069.7569 64.209065 1069.7569 67.518711 L 1069.7569 108.337679 C 1069.7569 111.647325 1070.747924 114.339918 1072.720622 116.424808 C 1074.70267 118.48165 1077.133484 119.510072 1080.031761 119.510072 C 1082.686957 119.510072 1084.855991 118.659287 1086.548211 116.967067 C 1088.268479 115.246799 1089.128613 112.909478 1089.128613 109.936406 L 1089.128613 105.130875 C 1089.128613 104.485774 1088.801388 104.15855 1088.156288 104.15855 L 1080.648814 104.15855 C 1079.900871 104.15855 1079.311866 103.943516 1078.891149 103.532148 C 1078.47978 103.092731 1078.274096 102.503727 1078.274096 101.774482 L 1078.274096 82.870233 C 1078.274096 82.140989 1078.47978 81.561334 1078.891149 81.149965 C 1079.311866 80.7012 1079.900871 80.486166 1080.648814 80.486166 L 1116.475265 80.486166 C 1117.232557 80.486166 1117.812212 80.7012 1118.23293 81.149965 C 1118.672346 81.561334 1118.896729 82.140989 1118.896729 82.870233 L 1118.896729 108.646205 C 1118.896729 115.891899 1117.241906 122.277459 1113.93226 127.830933 C 1110.622614 133.375058 1105.97602 137.675728 1099.99248 140.714244 C 1094.027637 143.762111 1087.146565 145.286044 1079.367962 145.286044 Z M 1079.367962 145.286044 " stroke="#ffffff" stroke-width="3.8" stroke-opacity="1" stroke-miterlimit="4"/></svg>